<?xml version="1.0" encoding="utf-8"?>
<!-- Generator: Adobe Illustrator 22.1.0, SVG Export Plug-In . SVG Version: 6.00 Build 0)  -->
<svg version="1.1" id="Capa_1" xmlns="http://www.w3.org/2000/svg" xmlns:xlink="http://www.w3.org/1999/xlink" x="0px" y="0px"
	 viewBox="0 0 341.2 119.5" style="enable-background:new 0 0 341.2 119.5;" xml:space="preserve">
<style type="text/css">
	.st0{fill:#FFFFFF;}
</style>
<g>
	<path class="st0" d="M5.1,14.1h37.2c1.9,0,3.7,0.4,5.5,1.1c1.8,0.7,3.6,2,5.3,3.8c3,3.1,4.6,7.9,4.8,14.2v2.3
		c0,5.9-0.7,10.1-2.1,12.8c-0.9,1.3-1.9,2.5-2.9,3.6s-2.4,2.1-4.1,3.1c-0.1,0.1-0.1,0.2-0.3,0.3c-0.1,0.1-0.1,0.3-0.1,0.5
		c0,0.1,0,0.3,0.1,0.4c1.5,2,2.6,3.8,3.3,5.3c0.6,1.5,1.2,3.1,1.8,4.6L59,83c0.1,0.5,0.4,1,0.8,1.4c0.4,0.4,0.5,0.7,0.5,0.9
		c0,0.3-0.2,0.5-0.6,0.5H45.9c-0.4,0-0.8-0.4-1.3-1c-0.5-0.7-0.8-1.3-0.9-1.8l-6.2-17.5c-0.9-3.7-2.8-5.8-5.7-6.2H19.6
		c-0.7,0-1,0.3-1,1v24.5c0,0.7-0.3,1-1,1H5.1c-0.7,0-1-0.3-1-1V15.1C4.1,14.5,4.4,14.1,5.1,14.1z M19.6,27.1c-0.7,0-1,0.3-1,1v16.3
		c0,0.7,0.4,1,1.1,1h18.1c0.9,0,2-0.5,3.1-1.4c0.9-0.8,1.6-2,2.1-3.5c0.5-1.5,0.8-3.2,0.8-5.1c0-0.9,0-1.8-0.1-2.6
		c-0.1-0.8-0.3-1.5-0.6-2.1c-1.1-2.2-2.3-3.4-3.8-3.6H19.6z"/>
	<path class="st0" d="M72.2,14.1h12.5c0.7,0,1,0.3,1,1v69.7c0,0.7-0.3,1-1,1H72.2c-0.7,0-1-0.3-1-1V15.1
		C71.2,14.5,71.5,14.1,72.2,14.1z"/>
	<path class="st0" d="M97.5,27.5c0-2.3,0.4-4.2,1.1-5.9c0.7-1.7,1.8-3,3-4.1c1.3-1.1,2.8-1.9,4.6-2.5c1.8-0.6,3.7-0.9,5.8-0.9h35
		c0.7,0,1,0.3,1,1v11c0,0.7-0.3,1-1,1h-30.2c-1.8,0-3,0.5-3.8,1.5c-0.7,1-1,2.4-1,4.1v9.5c0,0.7,0.3,1.1,1,1.1h30.7c0.7,0,1,0.3,1,1
		v11c0,0.7-0.3,1-1,1H113c-0.7,0-1,0.4-1,1.1v27.4c0,0.7-0.3,1-1,1H98.5c-0.7,0-1-0.3-1-1V27.5z"/>
</g>
<g>
	<path class="st0" d="M4.6,95.9h9.3c0.5,0,0.9,0.1,1.4,0.3c0.4,0.2,0.9,0.5,1.3,0.9c0.8,0.8,1.1,2,1.2,3.6v0.6
		c0,1.5-0.2,2.5-0.5,3.2c-0.2,0.3-0.5,0.6-0.7,0.9s-0.6,0.5-1,0.8c0,0,0,0-0.1,0.1c0,0,0,0.1,0,0.1c0,0,0,0.1,0,0.1
		c0.4,0.5,0.7,0.9,0.8,1.3c0.2,0.4,0.3,0.8,0.4,1.2l1.4,4.2c0,0.1,0.1,0.3,0.2,0.4c0.1,0.1,0.1,0.2,0.1,0.2c0,0.1-0.1,0.1-0.2,0.1
		h-3.4c-0.1,0-0.2-0.1-0.3-0.3c-0.1-0.2-0.2-0.3-0.2-0.4l-1.5-4.4c-0.2-0.9-0.7-1.4-1.4-1.5H8.2c-0.2,0-0.3,0.1-0.3,0.3v6.1
		c0,0.2-0.1,0.3-0.3,0.3H4.6c-0.2,0-0.3-0.1-0.3-0.3V96.2C4.4,96,4.4,95.9,4.6,95.9z M8.2,99.2c-0.2,0-0.3,0.1-0.3,0.3v4.1
		c0,0.2,0.1,0.3,0.3,0.3h4.5c0.2,0,0.5-0.1,0.8-0.4c0.2-0.2,0.4-0.5,0.5-0.9c0.1-0.4,0.2-0.8,0.2-1.3c0-0.2,0-0.4,0-0.6
		s-0.1-0.4-0.2-0.5c-0.3-0.6-0.6-0.9-1-0.9H8.2z"/>
	<path class="st0" d="M21.9,100.8h7c0.6,0,1.2,0.1,1.6,0.4c0.4,0.3,0.8,0.6,1.1,1.1c0.3,0.4,0.5,0.9,0.6,1.4
		c0.1,0.5,0.2,1.1,0.2,1.6v8.3c0,0.2-0.1,0.3-0.3,0.3h-8.7c-0.5,0-0.9-0.2-1.2-0.5c-0.3-0.3-0.6-0.7-0.7-1.1
		c-0.2-0.4-0.3-0.8-0.4-1.3c-0.1-0.4-0.1-0.7-0.1-1c0-0.4,0-0.8,0.1-1.3c0.1-0.5,0.3-0.9,0.5-1.3c0.2-0.4,0.5-0.8,0.9-1
		c0.4-0.3,0.8-0.4,1.3-0.4h4.2c0.4,0,0.8-0.1,1-0.3c0.3-0.2,0.4-0.5,0.4-0.7c0-0.2-0.1-0.5-0.3-0.7c-0.2-0.2-0.4-0.4-0.6-0.4h-6.6
		c-0.2,0-0.3-0.1-0.3-0.3v-2.5C21.6,100.9,21.7,100.8,21.9,100.8z M29.1,110.9c0.2,0,0.3-0.1,0.3-0.3v-1.5c0-0.2-0.1-0.3-0.3-0.3
		h-4.5c-0.2,0-0.4,0.1-0.6,0.3c-0.2,0.2-0.2,0.4-0.2,0.6c0,0.3,0.1,0.5,0.3,0.8c0.2,0.2,0.4,0.3,0.7,0.3H29.1z"/>
	<path class="st0" d="M37.9,118.3c0,0.2-0.1,0.3-0.3,0.3h-2.6c-0.2,0-0.3-0.1-0.3-0.3v-17.2c0-0.2,0.1-0.3,0.3-0.3h6.2
		c1,0,1.8,0.2,2.5,0.5c0.7,0.4,1.2,0.8,1.6,1.4c0.4,0.6,0.7,1.3,0.8,2c0.2,0.8,0.3,1.5,0.3,2.3c0,1.2-0.1,2.2-0.4,3
		s-0.7,1.6-1.1,2.1c-0.5,0.5-1.1,1-1.8,1.2s-1.5,0.4-2.3,0.4h-2.6c-0.2,0-0.3,0.1-0.3,0.3V118.3z M37.9,110.5c0,0.2,0.1,0.3,0.3,0.3
		h3.3c0.3,0,0.5-0.1,0.7-0.2c0.2-0.2,0.5-0.4,0.7-0.6c0.2-0.2,0.3-0.5,0.5-0.8c0.1-0.3,0.2-0.6,0.2-0.9v-1.9c0-0.3-0.1-0.5-0.2-0.9
		c-0.1-0.3-0.3-0.6-0.5-0.8c-0.2-0.2-0.4-0.4-0.7-0.6s-0.5-0.2-0.7-0.2h-3.3c-0.2,0-0.3,0.1-0.3,0.3V110.5z"/>
	<path class="st0" d="M48.9,95.9h2.6c0.2,0,0.3,0.1,0.3,0.3v2.5c0,0.2-0.1,0.3-0.3,0.3h-2.6c-0.2,0-0.3-0.1-0.3-0.3v-2.5
		C48.7,96,48.7,95.9,48.9,95.9z M48.7,101.1c0-0.2,0.1-0.3,0.3-0.3h2.6c0.2,0,0.3,0.1,0.3,0.3v12.5c0,0.2-0.1,0.3-0.3,0.3h-2.6
		c-0.2,0-0.3-0.1-0.3-0.3V101.1z"/>
	<path class="st0" d="M63.5,100.6v-4.4c0-0.2,0.1-0.3,0.3-0.3h2.5c0.2,0,0.3,0.1,0.3,0.3v17.4c0,0.2-0.1,0.3-0.3,0.3h-7.8
		c-0.8,0-1.5-0.2-2-0.6c-0.6-0.4-1-0.9-1.4-1.6s-0.6-1.3-0.8-2.1c-0.2-0.8-0.3-1.5-0.3-2.2c0-1,0.1-1.9,0.3-2.7
		c0.2-0.8,0.4-1.5,0.8-2.1c0.4-0.6,0.8-1,1.4-1.3c0.6-0.3,1.3-0.5,2-0.5h4.7C63.4,100.8,63.5,100.7,63.5,100.6z M63.5,104.1
		c0-0.2-0.1-0.3-0.3-0.3h-2.7c-0.5,0-1,0-1.4,0.1c-0.4,0.1-0.8,0.3-1.1,0.5c-0.3,0.3-0.5,0.6-0.7,1.1c-0.2,0.5-0.3,1.1-0.3,1.8
		c0,0.7,0.1,1.2,0.3,1.7c0.2,0.4,0.4,0.8,0.7,1c0.3,0.3,0.7,0.4,1.1,0.5c0.4,0.1,0.9,0.2,1.4,0.2h2.7c0.2,0,0.3-0.1,0.3-0.3V104.1z"
		/>
	<path class="st0" d="M82,108.8c0,1-0.1,1.8-0.3,2.5c-0.2,0.7-0.4,1.2-0.8,1.6c-0.4,0.4-0.8,0.6-1.4,0.8c-0.5,0.1-1.2,0.2-2,0.2
		h-4.5c-0.8,0-1.4-0.1-1.9-0.4s-0.9-0.6-1.2-1.1c-0.3-0.4-0.5-0.9-0.6-1.5s-0.2-1.1-0.2-1.7v-4.4c0-0.6,0.1-1.1,0.3-1.6
		c0.2-0.5,0.5-0.9,0.8-1.2c0.4-0.3,0.8-0.6,1.2-0.8c0.5-0.2,1-0.3,1.5-0.3h5c0.5,0,0.9,0.1,1.4,0.3c0.5,0.2,0.9,0.4,1.2,0.7
		c0.4,0.3,0.6,0.7,0.9,1.2c0.2,0.5,0.3,1,0.3,1.6V108.8z M78.9,105.1c0-0.2-0.1-0.4-0.2-0.5c-0.1-0.2-0.3-0.3-0.5-0.4
		c-0.2-0.1-0.4-0.2-0.7-0.2c-0.3-0.1-0.5-0.1-0.8-0.1h-2.7c-0.2,0-0.4,0-0.7,0.1c-0.2,0-0.4,0.1-0.6,0.2c-0.2,0.1-0.3,0.2-0.4,0.4
		s-0.2,0.4-0.2,0.6v4c0,0.3,0.1,0.6,0.2,0.8c0.1,0.2,0.3,0.4,0.5,0.5c0.2,0.1,0.4,0.2,0.7,0.3s0.5,0.1,0.7,0.1h2.3
		c0.6,0,1.1-0.1,1.6-0.4c0.4-0.3,0.7-0.6,0.7-1.1v-2V105.1z"/>
	<path class="st0" d="M84.5,110.5h2.9c0.2,0,0.3,0.1,0.3,0.3v2.9c0,0.1,0,0.1,0,0.1l-1.5,2.1c0,0,0,0.1,0,0.1c0,0,0,0-0.1,0h-1.3
		c-0.2,0-0.3-0.1-0.2-0.1l0.8-1.8c0-0.1,0.1-0.1,0-0.2c0,0,0,0-0.1,0c0,0-0.1,0-0.1,0h-0.6c-0.2,0-0.3-0.1-0.3-0.3v-2.9
		C84.3,110.6,84.3,110.5,84.5,110.5z"/>
	<path class="st0" d="M98.7,95.9h2.6c0.2,0,0.3,0.1,0.3,0.3v2.5c0,0.2-0.1,0.3-0.3,0.3h-2.6c-0.2,0-0.3-0.1-0.3-0.3v-2.5
		C98.4,96,98.5,95.9,98.7,95.9z M98.4,101.1c0-0.2,0.1-0.3,0.3-0.3h2.6c0.2,0,0.3,0.1,0.3,0.3v12.5c0,0.2-0.1,0.3-0.3,0.3h-2.6
		c-0.2,0-0.3-0.1-0.3-0.3V101.1z"/>
	<path class="st0" d="M107.5,113c0,0.5-0.2,0.8-0.7,0.8h-1.7c-0.2,0-0.4-0.1-0.5-0.3c-0.1-0.2-0.2-0.4-0.2-0.7v-10.4
		c0-0.4,0.2-0.8,0.5-1.1c0.3-0.3,0.8-0.5,1.3-0.5h5.6c0.6,0,1.2,0.1,1.7,0.4c0.5,0.2,1,0.6,1.4,1c0.4,0.4,0.7,0.9,0.9,1.4
		c0.2,0.5,0.3,1.1,0.3,1.6v8.5c0,0.2-0.1,0.3-0.3,0.3h-2.5c-0.2,0-0.3-0.1-0.3-0.3v-8c0-0.4-0.1-0.8-0.2-1c-0.1-0.3-0.3-0.5-0.5-0.6
		c-0.2-0.1-0.5-0.3-0.8-0.3c-0.3-0.1-0.6-0.1-1-0.1h-2.4c-0.2,0-0.4,0.1-0.5,0.2c-0.2,0.1-0.2,0.3-0.2,0.4V113z"/>
	<path class="st0" d="M123.3,110.5c0,0.2,0.1,0.3,0.3,0.3h2.1c0.1,0,0.2,0.1,0.2,0.3v2.5c0,0.2-0.1,0.3-0.3,0.3h-3.2
		c-0.6,0-1.2-0.2-1.6-0.6c-0.4-0.4-0.6-0.8-0.6-1.3v-7.8c0-0.2-0.1-0.3-0.3-0.3h-1.3c-0.2,0-0.3-0.1-0.3-0.3v-2.5
		c0-0.2,0.1-0.3,0.3-0.3h1.3c0.2,0,0.3-0.1,0.3-0.3v-3.1c0-0.2,0.1-0.3,0.3-0.3h2.5c0.2,0,0.3,0.1,0.3,0.3v3.1
		c0,0.2,0.1,0.3,0.3,0.3h2.1c0.2,0,0.3,0.1,0.3,0.3v2.5c0,0.2-0.1,0.3-0.3,0.3h-2.1c-0.2,0-0.3,0.1-0.3,0.3V110.5z"/>
	<path class="st0" d="M130.9,109c0,0.3,0.1,0.5,0.2,0.7s0.3,0.4,0.5,0.5c0.2,0.2,0.5,0.3,0.8,0.4c0.3,0.1,0.6,0.1,1,0.1h6
		c0.2,0,0.3,0.1,0.3,0.3v2.5c0,0.2-0.1,0.3-0.3,0.3h-4.2c-1.4,0-2.6-0.1-3.5-0.4c-0.9-0.2-1.7-0.6-2.3-1.1c-0.6-0.5-1-1.2-1.2-1.9
		c-0.2-0.8-0.4-1.7-0.4-2.8c0-1.3,0.2-2.4,0.6-3.3s0.9-1.6,1.6-2.1c0.7-0.5,1.4-0.9,2.2-1.1s1.7-0.3,2.5-0.3c1,0,1.9,0.1,2.7,0.4
		c0.8,0.2,1.4,0.6,1.9,1c0.5,0.4,0.8,1,1.1,1.6c0.2,0.6,0.3,1.3,0.3,2.1v2.6c0,0.2-0.1,0.3-0.3,0.3h-9.3
		C131,108.8,130.9,108.9,130.9,109z M137.6,105.9c0.2,0,0.3-0.1,0.3-0.3c0-0.6-0.3-1.1-0.9-1.5s-1.4-0.6-2.4-0.6
		c-0.3,0-0.7,0-1.1,0.1c-0.4,0.1-0.8,0.2-1.2,0.4c-0.4,0.2-0.7,0.4-0.9,0.6s-0.4,0.5-0.4,0.9c0,0.2,0.1,0.3,0.3,0.3H137.6z"/>
	<path class="st0" d="M143.6,95.9h2.5c0.2,0,0.3,0.1,0.3,0.3V111v0.1v2.5c0,0.2-0.1,0.3-0.3,0.3h-2.5c-0.2,0-0.3-0.1-0.3-0.3V111
		V111V96.2C143.4,96,143.4,95.9,143.6,95.9z"/>
	<path class="st0" d="M149.6,95.9h2.5c0.2,0,0.3,0.1,0.3,0.3v2.5c0,0.2-0.1,0.3-0.3,0.3h-2.5c-0.2,0-0.3-0.1-0.3-0.3v-2.5
		C149.4,96,149.5,95.9,149.6,95.9z M149.4,101.1c0-0.2,0.1-0.3,0.3-0.3h2.5c0.2,0,0.3,0.1,0.3,0.3v12.5c0,0.2-0.1,0.3-0.3,0.3h-2.5
		c-0.2,0-0.3-0.1-0.3-0.3V101.1z"/>
	<path class="st0" d="M156.7,116.1h6.8c0.2,0,0.4-0.1,0.5-0.2c0.1-0.1,0.2-0.3,0.3-0.4c0.1-0.2,0.1-0.3,0.1-0.5c0-0.2,0-0.4,0-0.5
		v-0.6h-3.7c-0.7,0-1.3-0.1-1.9-0.4s-1.2-0.7-1.7-1.2c-0.5-0.5-0.9-1.2-1.3-1.9c-0.3-0.8-0.5-1.6-0.5-2.6v-1.6c0-0.7,0.1-1.3,0.3-2
		c0.2-0.6,0.5-1.2,0.9-1.7c0.4-0.5,1-0.9,1.6-1.2c0.7-0.3,1.4-0.4,2.3-0.4h5.8c0.4,0,0.8,0.1,1,0.3s0.4,0.5,0.4,0.9v13.4
		c0,0.4-0.1,0.7-0.3,1.1c-0.2,0.4-0.4,0.8-0.7,1.1s-0.7,0.6-1,0.9c-0.4,0.2-0.8,0.3-1.3,0.3h-7.5c-0.2,0-0.3-0.1-0.3-0.3v-2.3
		C156.4,116.2,156.5,116.1,156.7,116.1z M158.7,108.9c0.1,0.4,0.3,0.8,0.6,1c0.3,0.3,0.7,0.5,1.2,0.6c0.5,0.1,1.1,0.2,1.9,0.2h1.6
		c0.2,0,0.3-0.1,0.3-0.3v-6.4c0-0.2-0.1-0.3-0.3-0.3h-3.3c-0.8,0-1.4,0.3-1.7,0.8c-0.4,0.5-0.5,1.2-0.5,2.1v0.7
		C158.5,108,158.6,108.5,158.7,108.9z"/>
	<path class="st0" d="M172.8,109c0,0.3,0.1,0.5,0.2,0.7s0.3,0.4,0.5,0.5c0.2,0.2,0.5,0.3,0.8,0.4c0.3,0.1,0.6,0.1,1,0.1h5.9
		c0.2,0,0.3,0.1,0.3,0.3v2.5c0,0.2-0.1,0.3-0.3,0.3h-4.2c-1.4,0-2.6-0.1-3.5-0.4c-0.9-0.2-1.7-0.6-2.3-1.1c-0.6-0.5-1-1.2-1.2-1.9
		c-0.2-0.8-0.4-1.7-0.4-2.8c0-1.3,0.2-2.4,0.6-3.3s0.9-1.6,1.6-2.1c0.7-0.5,1.4-0.9,2.2-1.1s1.7-0.3,2.5-0.3c1,0,1.9,0.1,2.7,0.4
		c0.8,0.2,1.4,0.6,1.9,1c0.5,0.4,0.8,1,1.1,1.6c0.2,0.6,0.3,1.3,0.3,2.1v2.6c0,0.2-0.1,0.3-0.3,0.3h-9.3
		C172.9,108.8,172.8,108.9,172.8,109z M179.5,105.9c0.2,0,0.3-0.1,0.3-0.3c0-0.6-0.3-1.1-0.9-1.5c-0.6-0.4-1.4-0.6-2.5-0.6
		c-0.3,0-0.7,0-1.1,0.1c-0.4,0.1-0.8,0.2-1.2,0.4c-0.4,0.2-0.7,0.4-0.9,0.6s-0.4,0.5-0.4,0.9c0,0.2,0.1,0.3,0.3,0.3H179.5z"/>
	<path class="st0" d="M188.4,113c0,0.5-0.2,0.8-0.7,0.8H186c-0.2,0-0.4-0.1-0.5-0.3c-0.1-0.2-0.2-0.4-0.2-0.7v-10.4
		c0-0.4,0.2-0.8,0.5-1.1c0.3-0.3,0.8-0.5,1.3-0.5h5.7c0.6,0,1.2,0.1,1.7,0.4c0.5,0.2,1,0.6,1.4,1c0.4,0.4,0.7,0.9,0.9,1.4
		c0.2,0.5,0.3,1.1,0.3,1.6v8.5c0,0.2-0.1,0.3-0.3,0.3h-2.5c-0.2,0-0.3-0.1-0.3-0.3v-8c0-0.4-0.1-0.8-0.2-1c-0.1-0.3-0.3-0.5-0.5-0.6
		c-0.2-0.1-0.5-0.3-0.8-0.3c-0.3-0.1-0.6-0.1-1-0.1h-2.4c-0.2,0-0.4,0.1-0.5,0.2s-0.2,0.3-0.2,0.4V113z"/>
	<path class="st0" d="M204.2,110.5c0,0.2,0.1,0.3,0.3,0.3h2.1c0.1,0,0.2,0.1,0.2,0.3v2.5c0,0.2-0.1,0.3-0.3,0.3h-3.2
		c-0.6,0-1.2-0.2-1.6-0.6c-0.4-0.4-0.6-0.8-0.6-1.3v-7.8c0-0.2-0.1-0.3-0.3-0.3h-1.3c-0.2,0-0.3-0.1-0.3-0.3v-2.5
		c0-0.2,0.1-0.3,0.3-0.3h1.3c0.2,0,0.3-0.1,0.3-0.3v-3.1c0-0.2,0.1-0.3,0.3-0.3h2.6c0.2,0,0.3,0.1,0.3,0.3v3.1
		c0,0.2,0.1,0.3,0.3,0.3h2c0.2,0,0.3,0.1,0.3,0.3v2.5c0,0.2-0.1,0.3-0.3,0.3h-2c-0.2,0-0.3,0.1-0.3,0.3V110.5z"/>
	<path class="st0" d="M211.7,109c0,0.3,0.1,0.5,0.2,0.7s0.3,0.4,0.5,0.5c0.2,0.2,0.5,0.3,0.8,0.4c0.3,0.1,0.6,0.1,1,0.1h5.9
		c0.2,0,0.3,0.1,0.3,0.3v2.5c0,0.2-0.1,0.3-0.3,0.3H216c-1.4,0-2.6-0.1-3.5-0.4c-0.9-0.2-1.7-0.6-2.3-1.1c-0.6-0.5-1-1.2-1.2-1.9
		c-0.2-0.8-0.4-1.7-0.4-2.8c0-1.3,0.2-2.4,0.6-3.3s0.9-1.6,1.6-2.1c0.7-0.5,1.4-0.9,2.2-1.1s1.7-0.3,2.5-0.3c1,0,1.9,0.1,2.7,0.4
		c0.8,0.2,1.4,0.6,1.9,1c0.5,0.4,0.8,1,1.1,1.6c0.2,0.6,0.3,1.3,0.3,2.1v2.6c0,0.2-0.1,0.3-0.3,0.3H212
		C211.8,108.8,211.7,108.9,211.7,109z M218.4,105.9c0.2,0,0.3-0.1,0.3-0.3c0-0.6-0.3-1.1-0.9-1.5c-0.6-0.4-1.4-0.6-2.5-0.6
		c-0.3,0-0.7,0-1.1,0.1c-0.4,0.1-0.8,0.2-1.2,0.4c-0.4,0.2-0.7,0.4-0.9,0.6s-0.4,0.5-0.4,0.9c0,0.2,0.1,0.3,0.3,0.3H218.4z"/>
	<path class="st0" d="M234.9,118.7c-0.1,0-0.1,0-0.1-0.1v-0.1l1.8-4.6v0c0,0-0.1,0-0.2,0c-0.1,0-0.3,0-0.4-0.1
		c-0.1,0-0.3-0.1-0.5-0.2c-0.2-0.1-0.3-0.3-0.4-0.5l-4.1-11.9c0,0,0,0,0-0.1c0-0.1,0.1-0.2,0.2-0.2h2.9c0.1,0,0.3,0.1,0.3,0.2
		l2.6,8.3c0,0,0,0.1,0.1,0.2c0,0.1,0.1,0.2,0.1,0.3s0.1,0.2,0.2,0.3c0.1,0.1,0.1,0.1,0.2,0.1c0.1,0,0.1,0,0.2-0.1
		c0.1-0.1,0.1-0.2,0.2-0.3s0.1-0.2,0.1-0.3c0-0.1,0.1-0.2,0.1-0.2l3.2-8.4c0-0.1,0.1-0.1,0.3-0.1h3c0.2,0,0.3,0.1,0.3,0.2
		c0,0,0,0.1,0,0.1l-6.7,17.4c0,0.1-0.2,0.2-0.4,0.2H234.9z"/>
	<path class="st0" d="M259.5,100.6c0,0.2,0.1,0.3,0.3,0.3h2c0.2,0,0.3,0.1,0.3,0.3v2.5c0,0.2-0.1,0.3-0.3,0.3h-2
		c-0.2,0-0.3,0.1-0.3,0.3v9.5c0,0.2-0.1,0.3-0.3,0.3h-2.5c-0.2,0-0.3-0.1-0.3-0.3v-9.5c0-0.2-0.1-0.3-0.3-0.3h-1.3
		c-0.2,0-0.3-0.1-0.3-0.3v-2.5c0-0.2,0.1-0.3,0.3-0.3h1.3c0.2,0,0.3-0.1,0.3-0.3V99c0-0.4,0.1-0.7,0.3-1.1c0.2-0.4,0.4-0.7,0.7-1
		c0.3-0.3,0.6-0.5,0.9-0.7c0.3-0.2,0.7-0.3,1-0.3h3.6c0.2,0,0.3,0.1,0.3,0.3v2.5c0,0.2-0.1,0.3-0.2,0.3h-2.5c-0.1,0-0.2,0-0.3,0.1
		c-0.1,0.1-0.2,0.2-0.3,0.3c-0.1,0.1-0.2,0.2-0.3,0.3s-0.1,0.2-0.1,0.3V100.6z"/>
	<path class="st0" d="M265.7,95.9h2.5c0.2,0,0.3,0.1,0.3,0.3V111v0.1v2.5c0,0.2-0.1,0.3-0.3,0.3h-2.5c-0.2,0-0.3-0.1-0.3-0.3V111
		V111V96.2C265.4,96,265.5,95.9,265.7,95.9z"/>
	<path class="st0" d="M273.9,109c0,0.3,0.1,0.5,0.2,0.7s0.3,0.4,0.5,0.5c0.2,0.2,0.5,0.3,0.8,0.4c0.3,0.1,0.6,0.1,1,0.1h5.9
		c0.2,0,0.3,0.1,0.3,0.3v2.5c0,0.2-0.1,0.3-0.3,0.3h-4.2c-1.4,0-2.6-0.1-3.5-0.4c-0.9-0.2-1.7-0.6-2.3-1.1c-0.6-0.5-1-1.2-1.2-1.9
		c-0.2-0.8-0.4-1.7-0.4-2.8c0-1.3,0.2-2.4,0.6-3.3s0.9-1.6,1.6-2.1c0.7-0.5,1.4-0.9,2.2-1.1s1.7-0.3,2.5-0.3c1,0,1.9,0.1,2.7,0.4
		c0.8,0.2,1.4,0.6,1.9,1c0.5,0.4,0.8,1,1.1,1.6c0.2,0.6,0.3,1.3,0.3,2.1v2.6c0,0.2-0.1,0.3-0.3,0.3h-9.3
		C274,108.8,273.9,108.9,273.9,109z M280.6,105.9c0.2,0,0.3-0.1,0.3-0.3c0-0.6-0.3-1.1-0.9-1.5c-0.6-0.4-1.4-0.6-2.5-0.6
		c-0.3,0-0.7,0-1.1,0.1c-0.4,0.1-0.8,0.2-1.2,0.4c-0.4,0.2-0.7,0.4-0.9,0.6s-0.4,0.5-0.4,0.9c0,0.2,0.1,0.3,0.3,0.3H280.6z"/>
	<path class="st0" d="M297.7,113.8C297.7,113.8,297.7,113.8,297.7,113.8l-3.3,0c-0.1,0-0.2,0-0.3,0s-0.1-0.1-0.1-0.2l-2-3
		c-0.1-0.1-0.1-0.1-0.2-0.2s-0.1-0.1-0.2-0.1c-0.1,0-0.2,0-0.2,0.1s-0.1,0.1-0.2,0.2l-2,3c0,0.1-0.1,0.1-0.1,0.2s-0.1,0-0.3,0h-3.2
		c-0.1,0-0.1,0-0.1,0c0,0,0-0.1,0-0.1l3.8-6c0.1-0.2,0.2-0.4,0.2-0.5c0-0.1,0-0.2-0.1-0.3c0-0.1-0.1-0.2-0.2-0.3l-3.5-5.5
		c0-0.1-0.1-0.1-0.1-0.2c0,0,0,0,0.2,0h3.4c0.2,0,0.3,0.1,0.4,0.2l1.4,2.3c0,0.1,0.1,0.1,0.2,0.2c0.1,0.1,0.2,0.1,0.3,0.1
		c0.1,0,0.2,0,0.3-0.1c0.1-0.1,0.1-0.1,0.2-0.2l1.4-2.3c0.1-0.2,0.2-0.2,0.5-0.2h3.4c0.1,0,0.1,0,0.1,0c0,0.1,0,0.1-0.1,0.2
		l-3.5,5.5c-0.1,0.1-0.1,0.2-0.2,0.3c0,0.1-0.1,0.2-0.1,0.3c0,0.1,0.1,0.3,0.2,0.5l3.8,6C297.7,113.7,297.7,113.8,297.7,113.8z"/>
	<path class="st0" d="M300.7,95.9h2.5c0.2,0,0.3,0.1,0.3,0.3v2.5c0,0.2-0.1,0.3-0.3,0.3h-2.5c-0.2,0-0.3-0.1-0.3-0.3v-2.5
		C300.5,96,300.5,95.9,300.7,95.9z M300.5,101.1c0-0.2,0.1-0.3,0.3-0.3h2.5c0.2,0,0.3,0.1,0.3,0.3v12.5c0,0.2-0.1,0.3-0.3,0.3h-2.5
		c-0.2,0-0.3-0.1-0.3-0.3V101.1z"/>
	<path class="st0" d="M309.8,100.8h4.7c0.8,0,1.5,0.2,2,0.5s1,0.8,1.4,1.3c0.4,0.6,0.6,1.3,0.8,2.1c0.2,0.8,0.3,1.7,0.3,2.7
		c0,0.8-0.1,1.5-0.3,2.3s-0.5,1.5-0.8,2.1c-0.4,0.6-0.8,1.1-1.4,1.5s-1.2,0.6-2,0.6h-7.8c-0.2,0-0.3-0.1-0.3-0.3V96.2
		c0-0.2,0.1-0.3,0.3-0.3h2.5c0.2,0,0.3,0.1,0.3,0.3v4.4C309.5,100.7,309.6,100.8,309.8,100.8z M309.5,110.5c0,0.2,0.1,0.3,0.3,0.3
		h2.7c0.5,0,1-0.1,1.4-0.2c0.4-0.1,0.8-0.3,1.1-0.5s0.5-0.6,0.7-1c0.2-0.4,0.3-1,0.3-1.7c0-0.7-0.1-1.3-0.3-1.8
		c-0.2-0.5-0.4-0.8-0.7-1.1c-0.3-0.3-0.7-0.4-1.1-0.5c-0.4-0.1-0.9-0.1-1.4-0.1h-2.7c-0.2,0-0.3,0.1-0.3,0.3V110.5z"/>
	<path class="st0" d="M321.6,95.9h2.5c0.2,0,0.3,0.1,0.3,0.3V111v0.1v2.5c0,0.2-0.1,0.3-0.3,0.3h-2.5c-0.2,0-0.3-0.1-0.3-0.3V111
		V111V96.2C321.3,96,321.4,95.9,321.6,95.9z"/>
	<path class="st0" d="M329.8,109c0,0.3,0.1,0.5,0.2,0.7s0.3,0.4,0.5,0.5c0.2,0.2,0.5,0.3,0.8,0.4c0.3,0.1,0.6,0.1,1,0.1h5.9
		c0.2,0,0.3,0.1,0.3,0.3v2.5c0,0.2-0.1,0.3-0.3,0.3h-4.2c-1.4,0-2.6-0.1-3.5-0.4c-0.9-0.2-1.7-0.6-2.3-1.1c-0.6-0.5-1-1.2-1.2-1.9
		c-0.2-0.8-0.4-1.7-0.4-2.8c0-1.3,0.2-2.4,0.6-3.3s0.9-1.6,1.6-2.1c0.7-0.5,1.4-0.9,2.2-1.1s1.7-0.3,2.5-0.3c1,0,1.9,0.1,2.7,0.4
		c0.8,0.2,1.4,0.6,1.9,1c0.5,0.4,0.8,1,1.1,1.6c0.2,0.6,0.3,1.3,0.3,2.1v2.6c0,0.2-0.1,0.3-0.3,0.3H330
		C329.9,108.8,329.8,108.9,329.8,109z M336.5,105.9c0.2,0,0.3-0.1,0.3-0.3c0-0.6-0.3-1.1-0.9-1.5c-0.6-0.4-1.4-0.6-2.5-0.6
		c-0.3,0-0.7,0-1.1,0.1c-0.4,0.1-0.8,0.2-1.2,0.4c-0.4,0.2-0.7,0.4-0.9,0.6s-0.4,0.5-0.4,0.9c0,0.2,0.1,0.3,0.3,0.3H336.5z"/>
</g>
</svg>
